<?xml version="1.0" encoding="UTF-8" standalone="no"?>
<!-- Created with Inkscape (http://www.inkscape.org/) -->
<svg version="1.1" id="svg2" width="2000" height="1333.3333" viewBox="0 0 2000 1333.3333" sodipodi:docname="logo 1.ai" xmlns:inkscape="http://www.inkscape.org/namespaces/inkscape" xmlns:sodipodi="http://sodipodi.sourceforge.net/DTD/sodipodi-0.dtd" xmlns="http://www.w3.org/2000/svg" xmlns:svg="http://www.w3.org/2000/svg">
  <defs id="defs6">
    <clipPath clipPathUnits="userSpaceOnUse" id="clipPath18">
      <path d="M 0,1000 H 1500 V 0 H 0 Z" id="path16"/>
    </clipPath>
  </defs>
  <sodipodi:namedview id="namedview4" pagecolor="#ffffff" bordercolor="#000000" borderopacity="0.25" inkscape:showpageshadow="2" inkscape:pageopacity="0.0" inkscape:pagecheckerboard="0" inkscape:deskcolor="#d1d1d1"/>
  <g id="g8" inkscape:groupmode="layer" inkscape:label="logo 1" transform="matrix(1.3333333,0,0,-1.3333333,0,1333.3333)">
    <path d="M 0,0 H 1500 V 1000 H 0 Z" style="fill:#f450f9;fill-opacity:1;fill-rule:nonzero;stroke:none" id="path10"/>
    <g id="g12">
      <g id="g14" clip-path="url(#clipPath18)">
        <g id="g20" transform="translate(436.4043,249.1201)">
          <path d="m 0,0 c 5.057,0 9.092,1.408 12.105,4.23 3.013,2.817 4.514,6.635 4.514,11.453 0,4.812 -1.501,8.635 -4.514,11.452 C 9.092,29.952 5.057,31.36 0,31.36 H -10.691 V 0 Z M -22.404,40.97 H 0.577 c 5.492,0 10.342,-1.045 14.562,-3.144 4.209,-2.094 7.494,-5.047 9.821,-8.847 2.338,-3.807 3.513,-8.239 3.513,-13.296 0,-5.057 -1.175,-9.495 -3.513,-13.296 C 22.633,-1.42 19.348,-4.372 15.139,-6.466 10.919,-8.56 6.069,-9.609 0.577,-9.609 h -22.981 z" style="fill:#132030;fill-opacity:1;fill-rule:nonzero;stroke:none" id="path22"/>
        </g>
        <g id="g24" transform="translate(538.7139,259.2402)">
          <path d="M 0,0 -8.016,19.364 -16.042,0 Z m 3.687,-8.892 h -23.481 l -4.481,-10.837 H -36.271 L -13.725,30.85 H -2.164 L 20.458,-19.729 H 8.168 Z" style="fill:#132030;fill-opacity:1;fill-rule:nonzero;stroke:none" id="path26"/>
        </g>
        <g id="g28" transform="translate(608.5264,280.5508)">
          <path d="m 0,0 h -16.184 v 9.539 h 44.07 V 0 H 11.703 V -41.04 H 0 Z" style="fill:#132030;fill-opacity:1;fill-rule:nonzero;stroke:none" id="path30"/>
        </g>
        <g id="g32" transform="translate(705.9199,259.2402)">
          <path d="M 0,0 -8.016,19.364 -16.042,0 Z m 3.687,-8.892 h -23.481 l -4.481,-10.837 H -36.271 L -13.725,30.85 H -2.164 L 20.458,-19.729 H 8.168 Z" style="fill:#132030;fill-opacity:1;fill-rule:nonzero;stroke:none" id="path34"/>
        </g>
        <g id="g36" transform="translate(812.8623,290.0898)">
          <path d="m 0,0 v -50.579 h -5.927 l -30.344,37.718 v -37.718 h -7.221 V 0 h 5.916 L -7.222,-37.718 V 0 Z" style="fill:#132030;fill-opacity:1;fill-rule:nonzero;stroke:none" id="path38"/>
        </g>
        <g id="g40" transform="translate(900.8809,245.7969)">
          <path d="M 0,0 V -6.286 H -36.706 V 44.293 H -1.011 V 38.006 H -29.484 V 22.47 H -4.121 V 16.33 H -29.484 V 0 Z" style="fill:#132030;fill-opacity:1;fill-rule:nonzero;stroke:none" id="path42"/>
        </g>
        <g id="g44" transform="translate(978.6982,264.0088)">
          <path d="m 0,0 c 2.403,1.975 3.611,4.791 3.611,8.451 0,3.659 -1.208,6.465 -3.611,8.418 -2.414,1.952 -5.905,2.925 -10.484,2.925 H -22.763 V -2.964 h 12.279 C -5.905,-2.964 -2.414,-1.979 0,0 M 3.828,-24.498 -7.08,-8.962 c -1.349,-0.098 -2.414,-0.146 -3.187,-0.146 h -12.496 v -15.39 h -7.221 v 50.579 h 19.717 c 6.558,0 11.713,-1.566 15.466,-4.693 3.763,-3.133 5.634,-7.445 5.634,-12.937 0,-3.899 -0.958,-7.227 -2.883,-9.973 -1.935,-2.741 -4.677,-4.743 -8.244,-5.993 l 11.996,-16.983 z" style="fill:#132030;fill-opacity:1;fill-rule:nonzero;stroke:none" id="path46"/>
        </g>
        <g id="g48" transform="translate(1058.2559,245.7969)">
          <path d="m 0,0 c 4.089,0 7.689,0.794 10.8,2.388 3.11,1.588 5.503,3.811 7.188,6.683 1.686,2.866 2.534,6.177 2.534,9.935 0,3.758 -0.848,7.069 -2.534,9.935 -1.685,2.866 -4.078,5.09 -7.188,6.683 C 7.689,37.212 4.089,38.006 0,38.006 H -13.66 V 0 Z M -20.882,44.293 H 0.435 c 5.339,0 10.082,-1.061 14.225,-3.176 4.144,-2.121 7.363,-5.096 9.648,-8.924 2.295,-3.834 3.436,-8.227 3.436,-13.187 0,-4.965 -1.141,-9.359 -3.436,-13.187 C 22.023,1.985 18.804,-0.989 14.66,-3.104 10.517,-5.226 5.774,-6.286 0.435,-6.286 h -21.317 z" style="fill:#132030;fill-opacity:1;fill-rule:nonzero;stroke:none" id="path50"/>
        </g>
        <g id="g52" transform="translate(627.8657,489.1328)">
          <path d="m 0,0 70.991,94.918 c 0,0 24.085,-90.796 114.407,-91.62 35.083,-0.316 50.204,-6.122 55.554,-13.086 C 254.09,43.907 268.597,165.997 129.597,169.224 -48.696,173.347 0,0 0,0" style="fill:#28002b;fill-opacity:1;fill-rule:nonzero;stroke:none" id="path54"/>
        </g>
        <g id="g56" transform="translate(683.5884,503.8062)">
          <path d="m 0,0 c -30.033,0 -54.468,-24.433 -54.468,-54.466 0,-30.034 24.435,-54.469 54.468,-54.469 30.033,0 54.466,24.435 54.466,54.469 C 54.466,-24.433 30.033,0 0,0 m 0,-115.952 c -33.903,0 -61.485,27.582 -61.485,61.486 0,33.901 27.582,61.483 61.485,61.483 33.901,0 61.483,-27.582 61.483,-61.483 0,-33.904 -27.582,-61.486 -61.483,-61.486" style="fill:#28002b;fill-opacity:1;fill-rule:nonzero;stroke:none" id="path58"/>
        </g>
        <g id="g60" transform="translate(816.7266,503.8062)">
          <path d="m 0,0 c -30.033,0 -54.468,-24.433 -54.468,-54.466 0,-30.034 24.435,-54.469 54.468,-54.469 30.033,0 54.469,24.435 54.469,54.469 C 54.469,-24.433 30.033,0 0,0 m 0,-115.952 c -33.902,0 -61.484,27.582 -61.484,61.486 0,33.901 27.582,61.483 61.484,61.483 33.903,0 61.485,-27.582 61.485,-61.483 0,-33.904 -27.582,-61.486 -61.485,-61.486" style="fill:#28002b;fill-opacity:1;fill-rule:nonzero;stroke:none" id="path62"/>
        </g>
        <g id="g64" transform="translate(744.3828,449.5557)">
          <path d="m 0,0 -5.744,4.03 c 0.595,0.852 6.061,8.27 13.078,7.807 4.103,-0.284 7.52,-3.051 10.158,-8.223 L 11.243,0.425 C 10.253,2.364 8.688,4.704 6.854,4.838 4.334,4.99 1.172,1.654 0,0" style="fill:#28002b;fill-opacity:1;fill-rule:nonzero;stroke:none" id="path66"/>
        </g>
        <g id="g68" transform="translate(708.3379,425.5625)">
          <path d="m 0,0 c 0,-12.537 -10.164,-22.7 -22.701,-22.7 -12.537,0 -22.701,10.163 -22.701,22.7 0,12.538 10.164,22.701 22.701,22.701 C -10.164,22.701 0,12.538 0,0" style="fill:#28002b;fill-opacity:1;fill-rule:nonzero;stroke:none" id="path70"/>
        </g>
        <g id="g72" transform="translate(696.6782,437.0937)">
          <path d="m 0,0 c 0,-2.094 -3.708,-3.792 -8.281,-3.792 -4.573,0 -8.281,1.698 -8.281,3.792 0,2.095 3.708,3.792 8.281,3.792 C -3.708,3.792 0,2.095 0,0" style="fill:#ffffff;fill-opacity:1;fill-rule:nonzero;stroke:none" id="path74"/>
        </g>
        <g id="g76" transform="translate(688.3975,411.8652)">
          <path d="m 0,0 c 0,-1.488 -1.577,-2.693 -3.521,-2.693 -1.945,0 -3.521,1.205 -3.521,2.693 0,1.487 1.576,2.693 3.521,2.693 C -1.577,2.693 0,1.487 0,0" style="fill:#ffffff;fill-opacity:1;fill-rule:nonzero;stroke:none" id="path78"/>
        </g>
        <g id="g80" transform="translate(835.5664,425.5625)">
          <path d="m 0,0 c 0,-12.537 -10.163,-22.7 -22.701,-22.7 -12.537,0 -22.7,10.163 -22.7,22.7 0,12.538 10.163,22.701 22.7,22.701 C -10.163,22.701 0,12.538 0,0" style="fill:#28002b;fill-opacity:1;fill-rule:nonzero;stroke:none" id="path82"/>
        </g>
        <g id="g84" transform="translate(823.9062,437.0937)">
          <path d="m 0,0 c 0,-2.094 -3.707,-3.792 -8.28,-3.792 -4.574,0 -8.282,1.698 -8.282,3.792 0,2.095 3.708,3.792 8.282,3.792 C -3.707,3.792 0,2.095 0,0" style="fill:#ffffff;fill-opacity:1;fill-rule:nonzero;stroke:none" id="path86"/>
        </g>
        <g id="g88" transform="translate(815.626,411.8652)">
          <path d="m 0,0 c 0,-1.488 -1.577,-2.693 -3.521,-2.693 -1.945,0 -3.522,1.205 -3.522,2.693 0,1.487 1.577,2.693 3.522,2.693 C -1.577,2.693 0,1.487 0,0" style="fill:#ffffff;fill-opacity:1;fill-rule:nonzero;stroke:none" id="path90"/>
        </g>
        <g id="g92" transform="translate(781.6924,365.1191)">
          <path d="m 0,0 c -4.548,-10.691 -15.915,-22.244 -31.062,-22.704 -14.041,-0.431 -27.405,8.479 -33.704,22.827 6.913,-3.257 13.98,-2.611 20.923,-2.919 0.983,-0.061 1.997,-0.123 2.98,-0.215 1.229,-0.123 2.397,-0.338 3.533,-0.707 2.335,-1.075 4.486,-3.256 4.947,-7.588 0,0 -0.584,6.452 8.265,8.295 0.061,0 0.123,0.031 0.184,0.031 1.475,0.184 2.98,0.246 4.486,0.246 C -12.996,-2.673 -6.514,-2.796 0,0" style="fill:#28002b;fill-opacity:1;fill-rule:nonzero;stroke:none" id="path94"/>
        </g>
        <g id="g96" transform="translate(775.7363,642.7285)">
          <path d="m 0,0 c 0,0 16.104,66.689 70.849,34.992 54.296,-31.438 39.843,-172.073 54.296,-207.728 22.469,-55.434 77.328,-44.43 77.328,-44.43 0,0 -43.991,34.67 -31.109,126.374 13.892,98.887 14.18,213.263 -95.655,208.403 C -22.366,113.271 -20.506,-4.86 -20.506,-4.86" style="fill:#28002b;fill-opacity:1;fill-rule:nonzero;stroke:none" id="path98"/>
        </g>
      </g>
    </g>
  </g>
</svg>